<?xml version="1.0" standalone="no"?>
<!DOCTYPE svg PUBLIC "-//W3C//DTD SVG 20010904//EN"
 "http://www.w3.org/TR/2001/REC-SVG-20010904/DTD/svg10.dtd">
<svg version="1.0" xmlns="http://www.w3.org/2000/svg"
 width="200.000000pt" height="200.000000pt" viewBox="0 0 200.000000 200.000000"
 preserveAspectRatio="xMidYMid meet">

<g transform="translate(0.000000,200.000000) scale(0.100000,-0.100000)"
fill="#000000" stroke="none">
<path d="M757 1903 c-15 -15 -4 -42 68 -164 41 -71 75 -131 75 -134 0 -3 -72
-5 -160 -5 l-160 0 -66 133 c-37 72 -72 135 -78 139 -13 9 -288 11 -310 2 -9
-3 -16 -14 -16 -25 0 -23 216 -524 241 -561 11 -14 39 -36 62 -47 40 -19 61
-21 265 -21 122 0 222 -3 222 -7 0 -3 -34 -64 -76 -135 -41 -71 -74 -136 -72
-146 3 -14 17 -17 88 -20 l85 -3 167 156 166 155 314 2 313 3 3 46 c7 110 -81
240 -201 295 -60 28 -68 29 -247 32 l-185 4 -165 154 -165 154 -81 0 c-44 0
-84 -3 -87 -7z m272 -175 l133 -123 -83 -3 c-45 -2 -88 -1 -94 2 -11 4 -145
226 -145 240 0 3 13 6 29 6 22 0 55 -25 160 -122z m-556 -53 l67 -135 202 -1
c112 0 325 0 474 0 l272 1 7 -27 c14 -61 53 -110 107 -137 57 -29 104 -32 161
-12 37 14 39 13 48 -10 5 -14 12 -36 15 -50 l6 -24 -690 2 c-677 3 -691 3
-718 23 -20 16 -54 82 -131 260 -56 131 -103 240 -103 242 0 2 48 3 108 3
l107 0 68 -135z m1192 -169 c51 -24 103 -70 88 -79 -48 -28 -138 -6 -173 43
-45 63 -6 79 85 36z m-505 -289 c0 -2 -58 -59 -130 -125 -106 -100 -135 -122
-160 -122 -16 0 -30 3 -30 6 0 4 32 60 70 125 l71 119 89 0 c50 0 90 -2 90 -3z"/>
<path d="M584 1467 c-3 -9 -4 -28 -2 -44 2 -22 8 -28 28 -28 23 0 25 4 25 40
0 34 -3 40 -23 43 -13 2 -24 -3 -28 -11z"/>
<path d="M714 1467 c-3 -9 -4 -28 -2 -44 2 -22 8 -28 28 -28 23 0 25 4 25 40
0 34 -3 40 -23 43 -13 2 -24 -3 -28 -11z"/>
<path d="M844 1467 c-3 -9 -4 -28 -2 -44 2 -22 8 -28 28 -28 23 0 25 4 25 40
0 34 -3 40 -23 43 -13 2 -24 -3 -28 -11z"/>
<path d="M974 1467 c-3 -9 -4 -28 -2 -44 2 -22 8 -28 28 -28 23 0 25 4 25 40
0 34 -3 40 -23 43 -13 2 -24 -3 -28 -11z"/>
<path d="M1104 1467 c-3 -9 -4 -28 -2 -44 2 -22 8 -28 28 -28 23 0 25 4 25 40
0 34 -3 40 -23 43 -13 2 -24 -3 -28 -11z"/>
<path d="M1234 1467 c-3 -9 -4 -28 -2 -44 2 -22 8 -28 28 -28 23 0 25 4 25 40
0 34 -3 40 -23 43 -13 2 -24 -3 -28 -11z"/>
<path d="M1364 1467 c-3 -9 -4 -28 -2 -44 2 -22 8 -28 28 -28 23 0 25 4 25 40
0 34 -3 40 -23 43 -13 2 -24 -3 -28 -11z"/>
<path d="M350 1105 c0 -40 4 -57 15 -61 28 -11 46 16 43 65 -3 42 -5 46 -30
49 -28 3 -28 3 -28 -53z"/>
<path d="M627 1153 c-10 -9 -8 -86 2 -101 5 -8 17 -12 27 -10 16 3 20 14 22
61 3 54 2 57 -21 57 -13 0 -27 -3 -30 -7z"/>
<path d="M1322 1103 c3 -51 6 -58 25 -61 26 -4 37 24 31 79 -3 29 -7 34 -31
37 l-28 3 3 -58z"/>
<path d="M1597 1153 c-13 -13 -7 -90 8 -103 29 -24 45 -4 45 55 0 51 -2 55
-23 55 -13 0 -27 -3 -30 -7z"/>
<path d="M357 963 c-4 -3 -7 -31 -7 -60 0 -53 1 -54 28 -51 24 3 27 7 30 46 3
43 -10 72 -33 72 -6 0 -15 -3 -18 -7z"/>
<path d="M631 956 c-7 -8 -11 -34 -9 -58 3 -39 6 -43 31 -46 l28 -3 -3 58 c-3
61 -21 80 -47 49z"/>
<path d="M1327 963 c-4 -3 -7 -31 -7 -60 0 -53 1 -54 28 -51 24 3 27 7 30 46
3 43 -10 72 -33 72 -6 0 -15 -3 -18 -7z"/>
<path d="M1601 956 c-7 -8 -11 -34 -9 -58 3 -39 6 -43 31 -46 l28 -3 -3 58
c-3 61 -21 80 -47 49z"/>
<path d="M363 773 c-20 -7 -17 -112 2 -119 8 -4 22 -1 30 6 18 15 20 91 3 108
-13 13 -16 13 -35 5z"/>
<path d="M632 768 c-17 -17 -15 -93 3 -108 8 -7 22 -10 30 -6 22 8 21 111 -1
120 -20 8 -18 8 -32 -6z"/>
<path d="M1333 773 c-20 -7 -17 -112 2 -119 8 -4 22 -1 30 6 18 15 20 91 3
108 -13 13 -16 13 -35 5z"/>
<path d="M1602 768 c-17 -17 -15 -93 3 -108 8 -7 22 -10 30 -6 22 8 21 111 -1
120 -20 8 -18 8 -32 -6z"/>
<path d="M354 566 c-3 -7 -4 -33 -2 -57 2 -34 7 -45 22 -47 10 -2 22 2 27 10
10 15 12 69 3 92 -8 20 -43 21 -50 2z"/>
<path d="M624 567 c-3 -8 -4 -34 -2 -58 3 -39 6 -44 28 -44 24 0 25 3 25 55 0
49 -2 55 -23 58 -12 2 -24 -3 -28 -11z"/>
<path d="M1324 566 c-3 -7 -4 -33 -2 -57 3 -39 6 -44 28 -44 21 0 26 5 28 34
5 51 -5 81 -29 81 -11 0 -22 -6 -25 -14z"/>
<path d="M1596 565 c-9 -24 -7 -78 3 -93 5 -8 17 -12 27 -10 16 3 19 12 19 58
0 48 -3 55 -21 58 -13 2 -24 -4 -28 -13z"/>
<path d="M139 341 c-27 -28 -29 -34 -29 -111 0 -77 2 -83 29 -111 l29 -29 832
0 832 0 29 29 c27 28 29 34 29 111 0 77 -2 83 -29 111 l-29 29 -832 0 -832 0
-29 -29z m1679 -43 c16 -16 16 -120 0 -136 -17 -17 -1619 -17 -1636 0 -16 16
-16 120 0 136 17 17 1619 17 1636 0z"/>
</g>
</svg>
