<?xml version="1.0" standalone="no"?>
<!DOCTYPE svg PUBLIC "-//W3C//DTD SVG 20010904//EN"
 "http://www.w3.org/TR/2001/REC-SVG-20010904/DTD/svg10.dtd">
<svg version="1.0" xmlns="http://www.w3.org/2000/svg"
 width="200.000000pt" height="200.000000pt" viewBox="0 0 200.000000 200.000000"
 preserveAspectRatio="xMidYMid meet">

<g transform="translate(0.000000,200.000000) scale(0.100000,-0.100000)"
fill="#000000" stroke="none">
<path d="M1540 1940 c-118 -40 -189 -161 -177 -298 6 -54 26 -105 139 -348 73
-156 135 -284 138 -284 3 0 65 128 138 284 113 243 133 294 139 348 9 98 -15
167 -81 233 -82 82 -183 105 -296 65z m184 -179 c26 -27 31 -39 31 -81 0 -43
-5 -54 -33 -82 -28 -28 -39 -33 -82 -33 -43 0 -54 5 -82 33 -28 28 -33 39 -33
81 0 52 25 92 70 112 37 16 96 3 129 -30z"/>
<path d="M292 1102 c-151 -54 -238 -217 -204 -379 11 -47 300 -673 312 -673
10 0 294 609 308 658 17 62 10 166 -15 223 -29 65 -86 124 -150 155 -73 36
-176 42 -251 16z m176 -182 c42 -26 72 -76 72 -120 0 -44 -30 -94 -72 -120
-117 -71 -259 71 -188 188 26 42 76 72 120 72 19 0 50 -9 68 -20z"/>
<path d="M1050 1071 c-45 -14 -84 -39 -116 -73 -54 -57 -69 -95 -69 -178 0
-83 15 -121 69 -178 65 -70 89 -76 312 -82 l201 -5 48 -30 c104 -64 134 -196
69 -301 -21 -35 -44 -56 -83 -76 l-53 -28 -472 0 -472 0 -17 -35 c-9 -20 -17
-38 -17 -41 0 -2 226 -3 503 -2 l502 3 57 28 c107 53 163 144 163 267 0 123
-56 214 -163 267 -55 27 -64 28 -252 33 -173 4 -199 7 -230 26 -122 71 -117
248 10 312 42 21 55 22 297 22 139 0 253 2 253 4 0 2 -7 20 -15 40 l-15 36
-243 -1 c-133 0 -253 -4 -267 -8z"/>
</g>
</svg>
