<?xml version="1.0" standalone="no"?>
<!DOCTYPE svg PUBLIC "-//W3C//DTD SVG 20010904//EN"
 "http://www.w3.org/TR/2001/REC-SVG-20010904/DTD/svg10.dtd">
<svg version="1.0" xmlns="http://www.w3.org/2000/svg"
 width="200.000000pt" height="200.000000pt" viewBox="0 0 200.000000 200.000000"
 preserveAspectRatio="xMidYMid meet">

<g transform="translate(0.000000,200.000000) scale(0.100000,-0.100000)"
fill="#000000" stroke="none">
<path d="M715 1656 c-16 -8 -90 -74 -162 -148 -180 -183 -181 -164 15 -360
130 -130 152 -148 180 -148 46 0 82 38 82 85 0 31 -9 46 -62 101 l-61 64 412
0 412 0 24 25 c25 24 32 65 19 100 -17 42 -42 45 -465 45 l-402 0 61 64 c51
53 62 70 62 98 0 60 -60 98 -115 74z"/>
<path d="M1195 1055 c-44 -43 -35 -81 35 -150 33 -33 60 -63 60 -67 0 -4 -186
-8 -413 -8 l-414 0 -21 -23 c-30 -32 -29 -87 1 -115 23 -22 26 -22 435 -22
227 0 412 -4 412 -8 0 -4 -27 -34 -60 -67 -51 -51 -60 -65 -60 -95 0 -47 33
-80 81 -80 31 0 49 14 182 148 194 194 194 170 -1 365 -130 130 -151 147 -180
147 -22 0 -41 -8 -57 -25z"/>
</g>
</svg>
