<?xml version="1.0" standalone="no"?>
<!DOCTYPE svg PUBLIC "-//W3C//DTD SVG 20010904//EN"
 "http://www.w3.org/TR/2001/REC-SVG-20010904/DTD/svg10.dtd">
<svg version="1.0" xmlns="http://www.w3.org/2000/svg"
 width="200.000000pt" height="200.000000pt" viewBox="0 0 200.000000 200.000000"
 preserveAspectRatio="xMidYMid meet">

<g transform="translate(0.000000,200.000000) scale(0.100000,-0.100000)"
fill="#000000" stroke="none">
<path d="M622 1573 c-7 -3 -19 -18 -27 -33 -13 -24 -15 -96 -15 -431 l0 -402
-64 61 c-54 52 -70 62 -100 62 -63 0 -101 -62 -73 -116 9 -16 76 -89 150 -161
182 -180 163 -181 359 15 130 130 148 152 148 180 0 46 -38 82 -85 82 -31 0
-46 -9 -101 -62 l-64 -61 0 412 0 412 -25 24 c-23 24 -69 32 -103 18z"/>
<path d="M1148 1432 c-130 -130 -148 -152 -148 -180 0 -46 38 -82 85 -82 31 0
46 9 101 62 l64 61 0 -412 0 -412 25 -24 c27 -27 79 -33 106 -12 37 29 39 47
39 458 l0 402 64 -61 c53 -51 70 -62 98 -62 35 0 68 26 81 63 13 35 -22 83
-155 215 -183 179 -164 180 -360 -16z"/>
</g>
</svg>
