<svg id="Layer_1" data-name="Layer 1" xmlns="http://www.w3.org/2000/svg" xmlns:xlink="http://www.w3.org/1999/xlink" viewBox="0 0 216 216"><defs><style>.cls-1{fill:none;stroke:#fff;stroke-width:8px;}.cls-1,.cls-2{stroke-miterlimit:10;}.cls-2{stroke:#1d1d1b;stroke-width:0px;fill:url(#linear-gradient);}</style><linearGradient id="linear-gradient" x1="22.4" y1="101.45" x2="189.58" y2="101.45" gradientUnits="userSpaceOnUse"><stop offset="1" stop-color="#fff"/><stop offset="1"/></linearGradient></defs><path class="cls-1" d="M211.5,151.5a60.18,60.18,0,0,1-60,60h-88a60.18,60.18,0,0,1-60-60v-88a60.18,60.18,0,0,1,60-60h88a60.18,60.18,0,0,1,60,60Z" transform="translate(0.5 0.5)"/><path class="cls-2" d="M159.15,80.74l20.75,9.89-22.08,3.89s4.74-3.51,5.41-5.86S159.15,80.74,159.15,80.74Zm-14.59,6.11c-7.06.18-25-.93-60,19.69S22.4,168.46,22.4,168.46s33.36-28.9,71-30.83c44.12-2.26,78.21,19.29,78.21,19.29l18,11.54L143.64,96.6l-16.06,7.3,11.53,18.82c-27.22-12.47-47.74-4.26-47.74-4.26s16.46-24,66.48-30.83A83.21,83.21,0,0,0,144.56,86.85Zm-90.2,30.21S78.05,97.16,93.85,88.7l-4.29.81,14-23.2,9.09,14.09s9.57-3.34,19.3-2.56L105.63,34.45Z" transform="translate(0.5 0.5)"/></svg>