<svg id="Layer_1" data-name="Layer 1" xmlns="http://www.w3.org/2000/svg" viewBox="0 0 216 216"><defs><style>.cls-1{fill:none;stroke:#231f20;stroke-width:8px;}.cls-1,.cls-2{stroke-miterlimit:10;}.cls-2{fill:#1d1d1b;stroke:#1d1d1b;stroke-width:0.25px;}</style></defs><path class="cls-1" d="M211.5,151.5a60.18,60.18,0,0,1-60,60h-88a60.18,60.18,0,0,1-60-60v-88a60.18,60.18,0,0,1,60-60h88a60.18,60.18,0,0,1,60,60Z" transform="translate(0.5 0.5)"/><path class="cls-2" d="M161.49,79.56l21.07,10.67-22.42,4.19s4.81-3.78,5.49-6.32S161.49,79.56,161.49,79.56Zm-14.82,6.58c-7.17.2-25.38-1-60.95,21.24s-63.1,66.77-63.1,66.77S56.49,143,94.74,140.9c44.8-2.43,79.41,20.8,79.41,20.8l18.23,12.45L145.73,96.66l-16.31,7.88,11.71,20.29c-27.63-13.45-48.48-4.59-48.48-4.59S109.37,94.4,160.16,87A80.17,80.17,0,0,0,146.67,86.14Zm-91.6,32.58s24.05-21.45,40.1-30.57L90.81,89l14.26-25,9.22,15.2s9.72-3.61,19.61-2.76l-26.77-46.8Z" transform="translate(0.5 0.5)"/></svg>