<svg id="Layer_1" data-name="Layer 1" xmlns="http://www.w3.org/2000/svg" viewBox="0 0 72 72"><defs><style>.cls-1,.cls-2{fill:#231f20;}.cls-2{fill-opacity:0.94;}.cls-3{fill:#fff;stroke:#1d1d1b;stroke-miterlimit:10;stroke-width:0.25px;}</style></defs><g id="g16"><g id="g8"><polygon id="polygon4" class="cls-1" points="35.5 2.12 35.5 53.69 1.12 70.88 35.5 2.12"/><path id="path6" class="cls-1" d="M35,4.24V53.38L2.24,69.76,35,4.24M36,0,0,72,36,54V0Z"/></g><g id="g14"><polygon id="polygon10" class="cls-1" points="36.5 53.69 36.5 2.12 70.88 70.88 36.5 53.69"/><path id="path12" class="cls-1" d="M37,4.24,69.76,69.76,37,53.38V4.24M36,0V54L72,72,36,0Z"/></g><path id="path6-4" class="cls-1" d="M40.48,11.73,36,1.78,30.57,14.31c-2.38,5.49-4,6-6,12L17.85,45.74c-1.94,5.63,6.12,7.71,12.26,7.7l14.25,0c6.14,0,15.91-3.47,13.1-8.72L50.75,32.15C47.93,27,41.5,17.64,40.48,11.73Zm4.2,37-2-2a10.41,10.41,0,0,1-5.24,1.39h0A10.19,10.19,0,0,1,27.13,39.2h4.46A5.84,5.84,0,0,0,38,43.83a5.42,5.42,0,0,0,1.34-.29l-2.09-2,3.14-3,2.28,2.18a5.64,5.64,0,0,0-4.21-8.15V28.19a10.12,10.12,0,0,1,9.24,9.93h0a9.67,9.67,0,0,1-1.82,5.66l2,1.89Z"/><path id="path3787" class="cls-2" d="M0,0"/><path id="path3789" class="cls-1" d="M53.93,62.91,36.07,54V53.4h1l16.32,8.16c9,4.49,16.32,8.15,16.32,8.13S67.08,64.4,63.87,58C60.07,50.4,58,46.16,57.92,45.85A11.6,11.6,0,0,0,56.49,43c-1.42-2.48-6.05-12.2-6.6-13.21-1-1.75-1.52-2.9-2.88-5.7-.81-1.67-1.75-3.3-5-9.77-2.22-4.44-4.47-9-5-10.24l-1-2.16V.28L54,36C63.8,55.71,71.83,71.81,71.82,71.82s-8.06-4-17.89-8.91Z"/><path id="path3791" class="cls-1" d="M.15,71.8S8.21,55.63,18.07,35.94L36,.13V1.79l-.7,1.61c-.42,1-7.13,14.49-16.86,33.94C9.54,55.12,2.28,69.68,2.3,69.7s7.39-3.64,16.37-8.13L35,53.4h1V54L18.1,62.92C8.27,67.84.2,71.86.18,71.86S.14,71.83.15,71.8Z"/></g><path class="cls-3" d="M48.61,33.09l5,2.58-5.37,1s1.15-.92,1.32-1.53S48.61,33.09,48.61,33.09Zm-3.55,1.6c-1.72,0-6.08-.25-14.59,5.14S15.37,56,15.37,56s8.11-7.55,17.26-8a33.81,33.81,0,0,1,19,5L56,56,44.84,37.23l-3.91,1.91,2.8,4.92c-6.61-3.26-11.6-1.12-11.6-1.12s4-6.26,16.16-8A18.38,18.38,0,0,0,45.06,34.69ZM23.14,42.58s5.75-5.2,9.59-7.41l-1,.21,3.41-6.06L37.31,33A12.32,12.32,0,0,1,42,32.33L35.6,21Z"/></svg>