<?xml version="1.0" standalone="no"?>
<!DOCTYPE svg PUBLIC "-//W3C//DTD SVG 20010904//EN"
 "http://www.w3.org/TR/2001/REC-SVG-20010904/DTD/svg10.dtd">
<svg version="1.0" xmlns="http://www.w3.org/2000/svg"
 width="32.000000pt" height="32.000000pt" viewBox="0 0 32.000000 32.000000"
 preserveAspectRatio="xMidYMid meet">

<g transform="translate(0.000000,32.000000) scale(0.100000,-0.100000)"
fill="#000000" stroke="none">
<path d="M99 291 c-41 -41 -38 -77 12 -162 23 -38 45 -69 50 -69 17 0 89 136
89 169 0 44 -46 91 -90 91 -22 0 -41 -9 -61 -29z m86 -37 c19 -20 16 -43 -7
-58 -21 -13 -51 2 -56 26 -3 16 23 48 38 48 5 0 16 -7 25 -16z"/>
<path d="M150 230 c0 -5 5 -10 10 -10 6 0 10 5 10 10 0 6 -4 10 -10 10 -5 0
-10 -4 -10 -10z"/>
<path d="M33 108 c-55 -27 -32 -76 45 -98 108 -30 256 12 238 67 -6 20 -44 43
-71 43 -25 0 -16 -17 15 -30 34 -14 37 -22 13 -41 -11 -10 -46 -14 -113 -14
-67 0 -102 4 -113 14 -24 19 -21 27 13 41 17 7 30 16 30 21 0 12 -30 10 -57
-3z"/>
</g>
</svg>
